<svg width="31" height="30" viewBox="0 0 31 30" fill="none" xmlns="http://www.w3.org/2000/svg">
<g clip-path="url(#clip0_341_120)">
<path fill-rule="evenodd" clip-rule="evenodd" d="M15.5004 0.625C11.8207 0.626848 8.26169 1.88807 5.45973 4.18315C2.65777 6.47823 0.795567 9.65751 0.206104 13.1525C-0.38336 16.6475 0.338347 20.2303 2.24219 23.2602C4.14604 26.2902 7.10786 28.5697 10.5981 29.6912C11.3681 29.8295 11.6581 29.3677 11.6581 28.975C11.6581 28.5823 11.6427 27.4438 11.6375 26.199C7.32558 27.1005 6.41442 24.4381 6.41442 24.4381C5.71116 22.7093 4.69476 22.2549 4.69476 22.2549C3.28824 21.3312 4.80001 21.3485 4.80001 21.3485C6.35796 21.4547 7.17673 22.8871 7.17673 22.8871C8.55758 25.1667 10.8034 24.5073 11.6863 24.122C11.8249 23.1563 12.2279 22.4994 12.6719 22.1264C9.22747 21.751 5.60849 20.4717 5.60849 14.7568C5.58714 13.2746 6.15872 11.8413 7.20496 10.7534C7.04582 10.378 6.51452 8.86154 7.35638 6.80179C7.35638 6.80179 8.65768 6.40169 11.6196 8.33055C14.1601 7.66203 16.8406 7.66203 19.3811 8.33055C22.3405 6.40169 23.6392 6.80179 23.6392 6.80179C24.4836 8.8566 23.9523 10.373 23.7932 10.7534C24.8428 11.8415 25.4155 13.2773 25.3922 14.7617C25.3922 20.489 21.7656 21.751 18.316 22.119C18.8704 22.5833 19.3657 23.4897 19.3657 24.8827C19.3657 26.8782 19.3478 28.4835 19.3478 28.975C19.3478 29.3726 19.6275 29.8369 20.4129 29.6912C23.9035 28.5696 26.8657 26.2896 28.7695 23.2592C30.6733 20.2287 31.3946 16.6454 30.8045 13.1501C30.2143 9.65475 28.3512 6.47544 25.5483 4.18076C22.7454 1.88607 19.1856 0.625676 15.5055 0.625H15.5004Z" fill="#404040"/>
<path d="M10.3693 24.9691C10.3693 25.0901 10.2256 25.1938 10.0408 25.1963C9.85602 25.1988 9.70459 25.1 9.70459 24.979C9.70459 24.858 9.84831 24.7542 10.0331 24.7518C10.2179 24.7493 10.3693 24.8456 10.3693 24.9691Z" fill="#404040"/>
<path d="M11.5499 24.7789C11.573 24.8999 11.4447 25.0259 11.2599 25.0555C11.0751 25.0851 10.9134 25.0135 10.8903 24.895C10.8672 24.7764 11.0007 24.648 11.1803 24.6159C11.36 24.5838 11.5268 24.6579 11.5499 24.7789Z" fill="#404040"/>
<path d="M9.10115 24.8852C9.06265 25.0013 8.88811 25.0532 8.71358 25.0038C8.53905 24.9544 8.42355 24.8161 8.45691 24.6975C8.49028 24.579 8.66738 24.5247 8.84448 24.579C9.02158 24.6333 9.13451 24.7642 9.10115 24.8852Z" fill="#404040"/>
<path d="M7.93851 24.4011C7.85381 24.4924 7.68185 24.4677 7.54068 24.3443C7.39952 24.2208 7.36614 24.0528 7.45084 23.9639C7.53554 23.875 7.70751 23.8997 7.8538 24.0207C8.0001 24.1417 8.02834 24.3121 7.93851 24.4011V24.4011Z" fill="#404040"/>
<path d="M7.10962 23.5712C7.01466 23.6354 6.85295 23.5712 6.76312 23.4428C6.73828 23.4198 6.71853 23.3921 6.70503 23.3616C6.69153 23.331 6.68457 23.2982 6.68457 23.265C6.68457 23.2318 6.69153 23.1989 6.70503 23.1684C6.71853 23.1378 6.73828 23.1102 6.76312 23.0872C6.85808 23.0254 7.01979 23.0872 7.10962 23.2131C7.19946 23.3391 7.20202 23.507 7.10962 23.5712V23.5712Z" fill="#404040"/>
<path d="M6.49851 22.7142C6.44535 22.7399 6.38454 22.7471 6.32648 22.7345C6.26843 22.7219 6.21673 22.6903 6.18025 22.645C6.08015 22.5413 6.0596 22.398 6.1366 22.3338C6.2136 22.2696 6.35221 22.2993 6.45231 22.403C6.55241 22.5067 6.57551 22.65 6.49851 22.7142Z" fill="#404040"/>
<path d="M5.86977 22.04C5.8364 22.1141 5.7132 22.1364 5.6131 22.0845C5.51301 22.0326 5.43858 21.9363 5.47451 21.8597C5.51044 21.7832 5.63108 21.7634 5.73118 21.8153C5.83128 21.8672 5.90827 21.9659 5.86977 22.04Z" fill="#404040"/>
</g>
<defs>
<clipPath id="clip0_341_120">
<rect width="31" height="30" fill="white"/>
</clipPath>
</defs>
</svg>
