<svg width="31" height="27" viewBox="0 0 31 27" fill="none" xmlns="http://www.w3.org/2000/svg">
<path d="M9.75229 27C21.4475 27 27.8461 16.6112 27.8461 7.60485C27.8461 7.31279 27.8401 7.01424 27.8279 6.72219C29.0727 5.75729 30.1468 4.56212 31 3.19285C29.8408 3.74571 28.61 4.10678 27.3496 4.26372C28.6767 3.41107 29.6703 2.07159 30.1463 0.493596C28.8979 1.28666 27.5326 1.8461 26.109 2.14793C25.1498 1.05544 23.8816 0.332086 22.5004 0.0896968C21.1192 -0.152692 19.702 0.0993879 18.4679 0.806964C17.2338 1.51454 16.2515 2.6382 15.6729 4.00422C15.0943 5.37024 14.9516 6.90253 15.2669 8.3642C12.7391 8.22822 10.2661 7.52433 8.00831 6.29815C5.75053 5.07197 3.75835 3.35088 2.16092 1.24645C1.34902 2.74694 1.10057 4.52251 1.46608 6.2123C1.83159 7.90208 2.78362 9.37929 4.12869 10.3437C3.11889 10.3093 2.13122 10.0179 1.24727 9.49348V9.57785C1.24636 11.1525 1.75421 12.6789 2.68448 13.8976C3.61476 15.1162 4.91004 15.952 6.35016 16.2627C5.41474 16.537 4.43298 16.577 3.48084 16.3795C3.88721 17.7337 4.67787 18.9182 5.74245 19.7675C6.80704 20.6169 8.09245 21.0888 9.41928 21.1173C7.16671 23.014 4.38414 24.0428 1.51973 24.0379C1.01175 24.0371 0.504265 24.0037 0 23.9379C2.90994 25.9391 6.29498 27.0019 9.75229 27Z" fill="#404040"/>
</svg>
